<svg viewBox="-35 0 512 512" xmlns="http://www.w3.org/2000/svg"><path d="m442.445312 455.925781-26.789062-401.847656c-1.988281-29.816406-27.917969-54.078125-57.804688-54.078125h-273.132812c-29.882812 0-55.816406 24.261719-57.804688 54.078125l-26.789062 401.847656c-.992188 14.847657 3.953125 28.894531 13.925781 39.550781 9.96875 10.65625 23.652344 16.523438 38.535157 16.523438h337.398437c14.882813 0 28.570313-5.867188 38.539063-16.527344 9.96875-10.65625 14.914062-24.699218 13.921874-39.546875zm-145.425781-30.300781c-7.65625 11.703125-20.5625 18.683594-34.519531 18.683594-10.136719 0-17.964844-2.316406-24.871094-4.363282-5.664062-1.679687-10.558594-3.132812-16.34375-3.132812s-10.679687 1.453125-16.34375 3.132812c-6.90625 2.042969-14.734375 4.363282-24.871094 4.363282-13.957031 0-26.859374-6.980469-34.515624-18.679688-4.394532-6.714844-6.71875-14.511718-6.71875-22.550781 0-45.460937 36.988281-82.445313 82.449218-82.445313 45.460938 0 82.445313 36.984376 82.445313 82.445313 0 8.035156-2.320313 15.832031-6.710938 22.546875zm-157.679687-133.773438c0-3.949218 1.597656-7.820312 4.398437-10.609374 2.789063-2.789063 6.648438-4.398438 10.601563-4.398438 3.949218 0 7.820312 1.609375 10.609375 4.398438 2.789062 2.789062 4.390625 6.660156 4.390625 10.609374 0 3.953126-1.601563 7.8125-4.390625 10.601563-2.789063 2.800781-6.660157 4.398437-10.609375 4.398437-3.941406 0-7.8125-1.597656-10.601563-4.398437-2.800781-2.789063-4.398437-6.648437-4.398437-10.601563zm43.738281-23.207031c0-3.949219 1.601563-7.820312 4.390625-10.609375 2.800781-2.792968 6.660156-4.390625 10.609375-4.390625s7.8125 1.597657 10.609375 4.390625c2.789062 2.789063 4.390625 6.660156 4.390625 10.609375s-1.597656 7.808594-4.390625 10.609375c-2.800781 2.789063-6.660156 4.390625-10.609375 4.390625s-7.820313-1.601562-10.609375-4.390625c-2.789062-2.800781-4.390625-6.660156-4.390625-10.609375zm46.410156 0c0-3.949219 1.601563-7.820312 4.398438-10.609375 2.792969-2.792968 6.660156-4.390625 10.613281-4.390625 3.9375 0 7.808594 1.597657 10.597656 4.390625 2.789063 2.789063 4.390625 6.660156 4.390625 10.609375s-1.601562 7.808594-4.390625 10.609375c-2.789062 2.789063-6.660156 4.390625-10.597656 4.390625-3.953125 0-7.820312-1.601562-10.613281-4.390625-2.796875-2.800781-4.398438-6.660156-4.398438-10.609375zm43.738281 23.207031c0-3.949218 1.601563-7.820312 4.402344-10.609374 2.789063-2.789063 6.660156-4.398438 10.597656-4.398438 3.953126 0 7.820313 1.609375 10.613282 4.398438 2.789062 2.789062 4.386718 6.660156 4.386718 10.609374 0 3.953126-1.597656 7.8125-4.386718 10.601563-2.800782 2.800781-6.660156 4.398437-10.613282 4.398437-3.9375 0-7.808593-1.597656-10.597656-4.398437-2.800781-2.789063-4.402344-6.648437-4.402344-10.601563zm-51.941406-101.1875c-52.566406 0-95.332031-42.765624-95.332031-95.328124 0-8.285157 6.714844-15 15-15s15 6.714843 15 15c0 36.023437 29.308594 65.328124 65.332031 65.328124 36.023438 0 65.332032-29.304687 65.332032-65.328124 0-8.285157 6.71875-15 15-15 8.285156 0 15 6.714843 15 15 0 52.5625-42.765626 95.328124-95.332032 95.328124zm0 0"/></svg>